<?xml version='1.0' encoding='utf-8'?>
<svg xmlns="http://www.w3.org/2000/svg" viewBox="0 0 4096 4096"> <path transform="scale(4)" d="m-0-0h1024v1024h-1024v-1024z" fill="#B46ED0"/> <path transform="scale(4)" d="m763.12 950.71 13.848 0.412c4.807 0.399 13.863 1.356 16.678 5.748 0.793 1.237 0.532 1.569 0.155 2.881-5.904 5.39-16.503 5.746-24.18 6.229l-11.679-0.105c-6.573-0.428-16.317-0.87-20.896-6.124-9e-3 -1.81-0.195-2.228 1.069-3.62 4.578-5.04 18.365-5.029 25.005-5.421z" fill="#7C32B3"/> <path transform="scale(4)" d="m269.27 949.21c10.499-0.721 38.273-1.253 45.755 5.611 1.424 1.307 1.775 1.533 1.872 3.433-6.998 6.151-18.952 6.356-27.805 7.178-11.718 0.412-40.264 1.196-48.948-6.569-0.578-1.574-0.615-1.542-0.038-3.109 6.751-5.985 20.415-5.971 29.164-6.544z" fill="#7C32B3"/> <path transform="scale(4)" d="m577.97 925.38c0.033 4.984 1.21 9.913 3.94 14.132 3.251 5.024 8.62 8.851 14.519 9.965l0.82 0.144c5.897 1.061 12.041 0.014 16.983-3.495 4.862-3.451 8.269-9.049 9.71-14.778 0.811-3.224 0.61-6.688 0.625-9.987l7e-3 -15.296-0.022-50.618c-9e-3 -5.378-0.878-12.514 0.178-17.729l0.167-0.761-0.019 89.136 15.562-0.074c7.173-0.025 14.544-1.27 20.262 4.048 2.593 2.41 4.038 6.394 4.162 9.892 0.091 2.589-0.714 5.589-1.346 8.077 8.221-0.044 20.485-1.991 26.642 4.299 1.912 1.953 2.888 3.744 3.379 6.411l0.119 0.627c0.586 3.451-0.457 7.283-2.621 10.027-2.078 2.635-4.977 4.115-8.275 4.479-4.875 0.538-10.224 0.157-15.155 0.155l-119.95-4e-3 -133.52 0.023-43.485 0.019c-7.921 3e-3 -16.011 0.355-23.911-0.093-2.74-0.156-5.35-1.227-7.477-2.958-2.468-2.007-3.851-4.357-4.187-7.545-0.404-3.827 0.776-8.132 3.456-10.963 5.079-5.363 14.459-3.972 21.18-3.868-3.023-4.428-4.957-8.474-3.809-14.005 0.626-3.014 2.528-5.7 5.208-7.245 4.369-2.518 10.631-1.828 15.497-1.828l22.936 0.025c0.386 7.529 1.771 13.495 7.683 18.789 4.459 3.993 10.503 6.398 16.548 5.991 6.656-0.447 12.245-2.606 16.735-7.681 4.353-4.921 5.807-10.307 5.991-16.759l131.46-0.552z" fill="#7C32B3"/> <path transform="scale(4)" d="m399.55 925.6-0.044-98.595-3.892-1.905c-6.029-3.521-11.992-9.373-13.736-16.274-0.335-1.328-0.707-2.353-1.329-3.572-1.382-0.999-1.612-1.127-3.303-1.27-1.832 0.8-3.237 2.18-3.848 4.114-1.195 3.788-0.435 9.633-0.434 13.611l8e-3 36.491c-2e-3 6.367 0.691 13.555-0.526 19.804-0.682 3.502-2.442 6.951-4.626 9.75-3.592 4.605-8.963 7.936-14.85 8.389-6.096 0.469-12.048-1.263-16.629-5.417-3.513-3.186-5.806-7.673-6.656-12.315-0.483-2.63-0.292-5.609-0.321-8.288l-0.073-15.703-0.115-47.124c-0.019-7.953 0.38-16.117-0.125-24.042-0.148-2.321-1.439-4.663-3.273-6.1-2.101-1.648-4.403-1.979-7.032-1.623-3.104 0.421-6.396 4.286-7.031 7.227-0.56 2.598-0.317 5.602-0.32 8.27l-0.032 14.443-0.049 69.782 0.038 21.176c5e-3 4.221 0.257 8.574-0.388 12.752-0.588 3.802-2.381 7.454-4.708 10.491-3.23 4.218-8.673 7.643-13.969 8.248-5.982 0.684-11.426-0.981-16.074-4.763-3.709-3.017-6.555-7.762-7.41-12.493-0.928-5.138-0.539-10.84-0.539-16.061l0.043-28.116 0.192-97.799 0.074-32.17c2e-3 -6.102 0.317-12.366-0.231-18.442-0.931-1.269-0.819-1.358-2.346-1.632-0.93 0.725-1.612 1.243-2.152 2.325-0.698 1.399-0.401 4.152-0.391 5.69l0.27 16.104c0.137 7.81 0.777 15.023-4.839 21.352-3.769 4.248-8.804 7.803-14.638 8.133-6.633 0.375-12.299-1.631-17.129-6.307-4.347-4.209-6.428-10.199-6.62-16.138l-0.154-36.586c-0.016-9.556-0.834-20.01 0.423-29.459 1.669-12.55 7.499-23.535 16.161-32.672 9.319-9.829 22.711-16.032 36.293-16.369 17.287-0.43 30.577 6.421 42.848 18.172l0.259-27.37c0.019-2.174 0.585-5.972 0.069-7.997-0.32-1.258-2.779-3.256-3.646-4.484-4.132-5.847-4.495-13.273-3.121-20.113 0.449-2.236 1.243-4.504 2.405-6.471 0.998-1.689 2.574-3.129 3.206-5 1.095-3.236 1.517-7.004 2.35-10.354l5.927-19.984c5.116-14.837 12.425-28.784 20.962-41.912 9.931-15.274 21.926-29.976 37.301-40.03l-20.617 0.027c-17.745-0.06-35.692-4.915-50.742-14.404-9.614-6.061-17.574-13.386-25.536-21.398 6.068-0.821 12.204-1.734 18.061-3.567-20.743-12.018-34.556-29.884-41.95-52.653 7.29 1.629 13.084 1.525 20.523 0.721-3.149-5.315-6.218-10.484-8.504-16.252-3.507-8.846-5.046-17.738-6.151-27.122l0.425-0.114c5.095 2.051 9.9 3.324 15.423 3.372 6.438 0.055 12.271-2.654 16.818-7.225 2.956-2.971 5.273-6.503 6.819-10.401 3.096-7.804 3.71-17.178 5.322-25.454 0.308-1.584 1.669-5.686 1.368-6.946-0.075-0.316-1.11-1.497-1.311-1.776l-3.482-5.338c-3.597-6.091-6.577-12.669-9.496-19.11-14.938-32.967-22.293-69.378-22.242-105.49 0.031-22.026 3.75-44.323 11.931-64.804 1.633-4.0896 3.269-8.9757 6.555-12.05 3.344-3.1279 7.341-3.6071 11.724-3.4008 12.592 0.5929 24 3.5577 35.864 7.7001 27.468 9.5908 53.636 27.008 74.882 46.832 6.355 5.929 12.214 12.416 18.088 18.814 4.842-2.447 10.524-3.991 15.697-5.608 30.569-9.557 63.884-11.798 95.428-6.137 11.624 2.086 22.835 4.892 33.975 8.808 0.985 0.346 8.396 3.438 8.604 3.362 0.352-0.129 12.81-14.684 14.551-16.469 26.956-27.648 63.097-48.721 101.44-55.212 6.665-1.1282 20.233-3.9904 25.835 0.2914 7.784 5.9495 12.279 35.242 13.636 45.287 7.518 55.66-2.371 115.72-36.83 161.24 5.33 12.634 6.556 26.877 12.199 39.206 2.631 5.749 6.527 10.086 12.686 12.112 9.633 3.168 18.4-1.25 26.806-5.56 0.024 5.736 0.336 11.771-0.329 17.462-1.425 12.2-6.645 21.085-14.971 29.854 8.057 0.398 14.734-0.962 22.359-3.466-0.867 2.614-2.122 5.07-3.146 7.625-2.496 6.223-4.988 12.393-8.43 18.173-6.779 11.382-17.147 21.284-28.462 28.109l14.825 2e-3 -8.178 9.395c-16.579 16.657-38.383 27.221-61.6 30.501-9.188 1.298-18.377 1.306-27.634 1.374 3.278 3.94 7.664 7.24 11.34 10.842 7.803 7.647 14.899 15.92 21.149 24.891 5.283 7.583 10.454 15.351 14.848 23.484 8.902 16.478 15.95 34.177 22.162 51.812 2.384 6.766 6.931 15.924 5.455 23.193-1.69 8.318-9.405 12.193-15.901 16.392-0.327 2.74 0.211 5.929 0.413 8.692l1.218 17.65 0.239 38.019c9.253-8.306 18.937-15.182 31.454-17.367 14.916-2.604 30.322 1.257 42.578 10.025 12.936 9.254 22.48 24.536 25.008 40.282 0.961 5.984 0.761 12.2 0.828 18.249l0.167 29.131 0.033 18.402c2e-3 3.554 0.221 7.249-0.229 10.775-0.472 3.694-1.956 7.286-4.205 10.25-3.41 4.494-8.561 7.768-14.208 8.433-5.714 0.672-11.193-0.988-15.652-4.632-3.444-2.815-5.722-6.824-6.748-11.13-1.036-4.345-0.616-9.513-0.594-13.985l0.114-23.307c9e-3 -2.897 0.373-6.294-0.177-9.129-0.34-1.752-1.248-2.291-2.558-3.274-2.254 0.118-2.221 0.311-3.787 1.774-1.533 3.829-0.63 10.695-0.633 14.995l0.041 32.371-0.306 111.83c-0.085 6.321-1.604 12.58-6.423 17.033-4.563 4.218-10.465 6.392-16.639 6.058-8.397-0.454-15.738-7.242-18.288-15.014-1.459-4.449-1.177-9.091-1.187-13.706l4e-3 -18.57-0.316-60.619 0.097-21.128c0.019-3.991 0.347-8.288-0.121-12.253-0.185-1.565-0.852-2.44-1.871-3.57-1.716-0.847-3.467-1.193-5.351-0.604-2.256 0.705-3.759 2.871-4.393 5.042-1.05 3.6-0.322 9.412-0.325 13.277l-0.022 34.228c-7e-3 6.175 0.57 13.184-0.46 19.243-0.368 2.169-1.246 4.36-2.308 6.278-3.273 5.914-8.871 9.926-15.419 11.473-5.404 1.276-11.484-0.243-16.068-3.18-13.252-8.488-10.007-25.373-10.005-38.865 0-2.721 0.264-6.055-0.437-8.686-0.368-1.382-1.253-2.557-2.55-3.177-8.139-3.888-12.66 7.058-17.108 11.541-2.252 2.27-5.165 3.79-8.191 4.729-1.023 0.318-1.985 0.61-2.954 1.073l-0.832 0.409-0.167 0.761c-1.056 5.215-0.187 12.351-0.178 17.729l0.022 50.618-7e-3 15.296c-0.015 3.299 0.186 6.763-0.625 9.987-1.441 5.729-4.848 11.327-9.71 14.778-4.942 3.509-11.086 4.556-16.983 3.495l-0.82-0.144c-5.899-1.114-11.268-4.941-14.519-9.965-2.73-4.219-3.907-9.148-3.94-14.132l-131.46 0.552c-0.184 6.452-1.638 11.838-5.991 16.759-4.49 5.075-10.079 7.234-16.735 7.681-6.045 0.407-12.089-1.998-16.548-5.991-5.912-5.294-7.297-11.26-7.683-18.789z" fill="#23005B"/> <path transform="scale(4)" d="m496.54 852.39 0.714 1.391 7.622 1.486c-0.447 2.002-0.601 4.03-2.219 5.433-1.869 0.324-3.464 0.229-5.346 0.052-1.261-1.922-0.749-6.052-0.771-8.362z" fill="#660C91"/> <path transform="scale(4)" d="m331.51 630.32-0.07-7.86 6.614 2.778 0.477 8.247-7.021-3.165z" fill="#F4962C"/> <path transform="scale(4)" d="m554 538.59c-0.028-1.387-0.223-3.002 0.147-4.345 0.196-0.713 10.262-5.058 11.856-5.854l0.54 0.355-4e-3 3.187-7.51 4.194 4e-3 0.049-5.033 2.414z" fill="#42A8B8"/> <path transform="scale(4)" d="m684.6 625.91 5.528-2.885 0.307 0.139 1.078 13.619-4.864 3.37-2.049-14.243z" fill="#F4962C"/> <path transform="scale(4)" d="m511.97 592.2c0.08-1.251-0.164-3.063 0.716-3.954l0.72 0.935c0.994 10.89 5.423 19.476 8.419 29.751-0.503-0.256-0.926-0.546-1.331-0.943-3.411-3.338-7.186-11.031-8.002-15.706-0.563-3.219-0.427-6.81-0.522-10.083z" fill="#FEFEFE"/> <path transform="scale(4)" d="m325.5 605.94c-1.534-1.126-2.912-2.239-4.008-3.818-1.578-2.276-1.676-5.179-1.154-7.809 0.603-3.041 1.809-5.174 4.413-6.88 1.641 0.175 2.752 1.362 3.984 2.365-1.209 2.793-4.026 6.681-4.085 9.682-0.042 2.135 0.641 4.327 0.85 6.46z" fill="#FEFEFE"/> <path transform="scale(4)" d="m696.6 592.3 6.5-4.663c0.709 2.141 1.387 4.219 2.328 6.272 0.811 1.769 0.714 3.466 0.059 5.282-0.974 2.699-3.024 3.79-5.279 5.303-0.628-4.402-1.912-8.104-3.608-12.194z" fill="#FEFEFE"/> <path transform="scale(4)" d="m304.71 705.75c1.059-0.319 2.179-0.465 3.29-0.319 1.747 0.228 2.546 1.279 3.629 2.521 0.533 1.479 0.72 2.427 0.312 3.979-0.574 2.183-1.791 3.02-3.691 4.065-0.764 0.225-1.307 0.235-2.121 0.174-1.469-0.109-2.925-0.99-3.787-2.174-0.803-1.103-1.325-2.652-1.085-4.015 0.379-2.146 1.698-3.168 3.453-4.231z" fill="#FEFEFE"/> <path transform="scale(4)" d="m517.38 855.72c3.758-1.195 7.548-1.645 11.329-3.104l0.162-77.856 0.384 84.85c-3.069 1.118-5.846 2.243-9.175 1.776-1.329-1.351-1.642-2.097-2.152-3.882l-0.548-1.784z" fill="#660C91"/> <path transform="scale(4)" d="m703.99 708.97c0.107 1.589 0.052 3.409 0.581 4.908 0.599 1.7 0.232 4.249 0.197 6.099-0.111 5.994 0.33 14.013-1.818 19.625l-0.195 0.32c-1.998-0.365-4.929 1.385-7.006 1.907 1.649-4.342 3.68-8.597 4.988-13.051 1.876-6.385 2.687-13.196 3.253-19.808z" fill="#D78088"/> <path transform="scale(4)" d="m505.29 548.06 0.463-1.879c2.471-0.756 4.993-0.655 7.555-0.692l0.113 30.113c3e-3 4.366 0.466 9.271-0.016 13.584l-0.72-0.935c-0.88 0.891-0.636 2.703-0.716 3.954-0.209 1.286-0.358 2.397-0.86 3.611l-0.548-30.25c-0.061-5.523 0.418-11.355-0.203-16.815-1.336-0.853-3.495-0.646-5.068-0.691z" fill="#41EFEE"/> <path transform="scale(4)" d="m474.49 544.02-0.018-6.401 13.969 4.78c3.299 0.955 7.265 1.418 10.311 2.927 0.255 1.644 0.274 3.2 0.259 4.861-2.157 0.021-4.781-0.705-6.908-1.137-5.987-1.214-11.863-2.98-17.613-5.03z" fill="#42A8B8"/> <path transform="scale(4)" d="m281.8 908.2c3.366-1.525 7.493-3.265 10.317-5.644 4.091-3.446 5.343-9.211 5.81-14.265 0.265 6.752 2.444 18.637-2.358 23.809-1.349 1.453-2.989 2.426-5.007 2.456-2.503 0.038-4.518-0.925-6.285-2.688-1.029-1.026-1.756-2.415-2.477-3.668z" fill="#660C91"/> <path transform="scale(4)" d="m658.22 621.71-15.539 2.413c-1.405-4.621-1.883-9.813-2.668-14.592l7.688-0.377c3.051 4.287 8.128 8.052 10.519 12.556z" fill="#42A8B8"/> <path transform="scale(4)" d="m520.47 550.15 0.306-5.631c9.356-1.964 18.876-4.653 27.69-8.386l0.09 7.553c-9.094 2.105-18.727 5.991-28.086 6.464z" fill="#42A8B8"/> <path transform="scale(4)" d="m359.64 862.2c0.209 5.039 1.377 14.351-2.396 18.311-1.963 2.059-4.389 2.605-7.132 2.496-2.745-0.111-4.11-0.934-5.908-3.034-1.393-1.626-1.798-3.416-2.123-5.473 1.519-0.338 3.033-1.231 4.456-1.878 5.952-2.703 9.403-4.93 13.103-10.422z" fill="#660C91"/> <path transform="scale(4)" d="m670 846.52c5.93-0.859 12.414 0.815 17.408-3.271 0.586-4.828 0.282-9.906 0.276-14.769-0.016-12.233-0.765-24.958 0.185-37.136l0.051-0.593 0.123 38.341c-0.01 7.276 0.792 15.9-0.637 22.998-0.434 2.156-1.317 4.019-2.79 5.659-1.513 1.683-3.393 2.259-5.598 2.25-2.443-0.01-4.717-0.77-6.367-2.649-2.709-3.085-2.757-6.94-2.651-10.83z" fill="#7C32B3"/> <path transform="scale(4)" d="m559.03 536.18-0.626 34.231c-0.075 4.84-0.843 11.485 0.514 16.05-1.457-0.168-2.195-0.436-3.262-1.47-1.391-1.35-2.325-3.002-2.587-4.939-0.743-5.496 0.25-11.567 0.475-17.111l0.453-24.347 5.033-2.414z" fill="#FEFEFE"/> <path transform="scale(4)" d="m558.34 867.81 0.224 13.21c0.011 1.426 0.227 4.141-0.207 5.506-0.344 1.082-1.858 3.08-2.696 3.919-1.562 1.562-3.547 2.568-5.791 2.489-2.176-0.078-4.089-1.202-5.466-2.833-3.898-4.614-2.577-12.714-2.508-18.457 5.368-1.308 10.961-3.237 16.444-3.834z" fill="#F4962C"/> <path transform="scale(4)" d="m691.51 636.78c0.676 21.375 1.128 42.641-0.885 63.966-1.131 11.978-2.866 24.672-7.425 35.886-1.367-3.713 1.585-18.407 2.146-22.842l1.931-20.452c0.832-17.577 0.217-35.282-0.689-52.839l0.058-0.349 4.864-3.37z" fill="#FEFEFE"/> <path transform="scale(4)" d="m250.51 719.41 0.43 20.79c0.034 2.893 0.409 6.516-0.153 9.339-0.388 1.944-1.307 3.969-2.642 5.449-1.298 1.439-2.817 2.018-4.736 2.056-2.664 0.054-5.206-0.975-7.006-2.952-3.388-3.722-3.166-7.84-2.946-12.544 3.657-1.012 5.284-4.366 7.25-7.347 3.234-4.903 6.202-10.159 9.803-14.791z" fill="#F4962C"/> <path transform="scale(4)" d="m559.03 536.18-4e-3 -0.049 7.51-4.194 1.019 30.305c0.303 5.469 1.513 12.162 0.753 17.539-0.263 1.862-0.889 3.579-2.263 4.909-1.72 1.664-3.989 2.154-6.327 1.9l-0.8-0.129c-1.357-4.565-0.589-11.21-0.514-16.05l0.626-34.231z" fill="#7AD5DA"/> <path transform="scale(4)" d="m392.01 477.02c4.762 4.413 8.865 10.161 13.45 14.894 13.675 14.121 29.01 25.726 46.103 35.444-0.055 3.286 0.199 6.969-0.474 10.173-0.012-0.839 0.141-3.549-0.337-4.155-0.261-0.331-2.314-1.122-2.75-1.347l-9.5-5.464c-19.446-12.047-35.193-27.156-49.708-44.767l3.216-4.778z" fill="#3488A4"/> <path transform="scale(4)" d="m573 531.97-0.401-6.386c15.064-8.363 29.154-20.889 41.419-32.938l11.067-11.483c1.604-1.632 3.289-3.898 5.497-4.643 0.489 1.064 0.934 1.401 1.782 2.165 0.712 0.64 1.158 1.536 1.62 2.364-12.914 18.043-32.222 33.063-50.849 44.795-3.23 2.035-6.581 4.713-10.135 6.126z" fill="#3488A4"/> <path transform="scale(4)" d="m335.25 574.39c11.861 9.027 26.742 16.282 42.08 14.173 5.015-0.69 8.809-2.896 12.336-6.457l-4.362 20.012c-14.104-1.297-26.269-4.795-38.894-11.194-4.233-2.146-9.061-4.649-12.73-7.67 0.241-3.004 0.88-5.937 1.57-8.864z" fill="#3488A4"/> <path transform="scale(4)" d="m233.52 692.5c-0.151-4.355 0.012-8.5 1.019-12.752 2.914-12.302 9.457-22.169 20.334-28.7 8.746-5.252 19.412-7.332 29.395-4.836 7.211 1.803 13.173 4.52 18.579 9.758 3.82 3.702 6.653 7.659 9.311 12.242 0.905 1.56 2.222 3.499 2.585 5.278 0.593 2.915 0.31 6.653 0.347 9.655-1.154-2.285-1.821-4.936-2.832-7.312-2.246-5.275-6.038-9.812-10.046-13.847-2.286-2.361-4.558-4.377-7.46-5.963-6.146-3.359-15.208-6.172-22.188-4.173-11.027 0.982-19.951 7.705-26.817 15.958-4.141 4.977-7.125 10.577-9.221 16.69-0.914 2.668-1.482 5.611-3.006 8.002z" fill="#FEFEFE"/> <path transform="scale(4)" d="m689.82 570.39 4.253 10.963c-15.599 11.672-36.802 17.206-56.131 17.179l-3.262-13.256 10.317 2.657c0.668 0.164 1.174 0.311 1.882 0.349 1.972 0.106 4.414-0.493 6.391-0.753 13.497-1.772 27.08-7.078 36.55-17.139z" fill="#3488A4"/> <path transform="scale(4)" d="m505.29 548.06c1.573 0.045 3.732-0.162 5.068 0.691 0.621 5.46 0.142 11.292 0.203 16.815l0.548 30.25c-0.536 10.579-6.157 19.482-7.898 29.788-1.265 7.483-0.417 14.545-1.047 21.924-1.462-0.925-3.15-2.493-4.126-3.931-9.44-13.909 4.127-34.009 6.57-48.305 1.154-6.759 0.85-13.581 0.833-20.414l-0.151-26.818z" fill="#FEFEFE"/> <path transform="scale(4)" d="m774.74 748.62 0.406 0.88-0.058 13.683 3.738-2.465c2.867-1.868 5.297-4.629 7.424-7.287 0.3 0.285 0.616 0.557 0.872 0.882-0.171 4.244-0.172 8.928 3.135 12.148l1.414 1.132c0.593 3.457 0.86 24.117-0.903 26.752l-0.537 0.596-0.478 0.553c-1.808 2.04-3.313 2.952-6.078 3.01-2.197 0.046-4.202-0.82-5.698-2.44-1.586-1.717-2.331-3.895-2.725-6.163-0.619-3.568-0.203-7.767-0.263-11.401l-0.249-29.88z" fill="#F4962C"/> <path transform="scale(4)" d="m712.6 694.36c6.632-9.193 15.49-14.569 26.73-16.461 10.948-1.843 23.64 1.72 32.559 8.207 10.14 7.374 17.743 20.652 19.433 33.062 0.558 4.095 0.234 8.56 0.231 12.694l-0.018 22.163-3.955-0.062c0.453-5.655-0.075-11.428-0.272-17.091-0.299-8.617 0.228-17.074-3.054-25.259-4.787-11.937-13.737-21.521-25.629-26.516-11.552-4.852-23.577-3.051-34.415 2.817-3.728 2.018-7.216 4.727-11.167 6.281l-0.443 0.165z" fill="#FEFEFE"/> <path transform="scale(4)" d="m696.6 592.3c1.696 4.09 2.98 7.792 3.608 12.194-13.21 8.618-26.784 13.331-41.99 17.219-2.391-4.504-7.468-8.269-10.519-12.556 17.644-2.955 33.654-7.038 48.901-16.857z" fill="#7AD5DA"/> <path transform="scale(4)" d="m630.58 476.52c8.993 3.527 15.949 9.938 22.418 16.982 15.025 16.361 26.959 36.42 35.783 56.756l7.667 19.466c0.791 2.149 2.297 5.545 2.063 7.786-1.431 1.344-2.821 2.715-4.432 3.847l-4.253-10.963c-10.433-24.661-20.525-48.142-37.264-69.347-3.478-4.405-7.247-8.495-11.227-12.446-2.283-2.266-5.087-4.535-7.029-7.084l-0.324-0.468c-0.462-0.828-0.908-1.724-1.62-2.364-0.848-0.764-1.293-1.101-1.782-2.165z" fill="#FEFEFE"/> <path transform="scale(4)" d="m457.01 532.04 0.241-1.882c3.415 0.357 8.413 3.363 11.581 4.873l0.469 21.411c0.269 7.515 1.598 16.144 0.634 23.557-0.185 1.43-0.809 2.89-1.768 3.982-1.422 1.619-3.54 2.408-5.666 2.504-0.746 0.034-0.766 5e-3 -1.395-0.092-1.748-0.532-3.334-1.128-4.604-2.498-1.27-1.369-1.769-2.923-1.94-4.756-0.631-6.755 0.599-14.169 1.052-20.941l1.396-26.158z" fill="#7AD5DA"/> <path transform="scale(4)" d="m457.01 532.04c1.65 0.826 3.028 1.781 4.498 2.893l-0.102 30.669c-0.085 5.395-0.833 11.598-0.212 16.906 0.155 1.318 0.521 2.237 1.412 3.241l-1.5 0.644c-1.748-0.532-3.334-1.128-4.604-2.498-1.27-1.369-1.769-2.923-1.94-4.756-0.631-6.755 0.599-14.169 1.052-20.941l1.396-26.158z" fill="#FEFEFE"/> <path transform="scale(4)" d="m557.09 495.25 0.848 0.033-18.912 12.41c-10.63 6.128-22.923 10.632-35.212 7.121-10.199-2.914-19.317-7.723-28.333-13.243-2.983-1.514-5.959-3.506-8.646-5.496 7.943 0.825 15.782 3.413 23.667 4.769 9.345 1.607 19.159 2.596 28.645 2.025 12.504-0.752 25.883-4.309 37.943-7.619z" fill="#7C32B3"/> <path transform="scale(4)" d="m511.97 592.2c0.095 3.273-0.041 6.864 0.522 10.083 0.816 4.675 4.591 12.368 8.002 15.706 0.405 0.397 0.828 0.687 1.331 0.943 2.801 6.232 3.788 14.999 1.281 21.47-1.364 3.522-4.106 7.085-7.621 8.662-3.272 1.468-7.216 1.218-10.481-0.135l-2.839-1.406c0.63-7.379-0.218-14.441 1.047-21.924 1.741-10.306 7.362-19.209 7.898-29.788 0.502-1.214 0.651-2.325 0.86-3.611z" fill="#7AD5DA"/> <path transform="scale(4)" d="m333.68 583.26-5.282-3.411c-0.368-4.554 1.933-11.211 3.316-15.566 9.029-28.44 22.755-54.181 44.123-75.267 4.394-4.337 9.652-9.467 15.18-12.338l0.992 0.347-3.216 4.778-17.333 21.176c-12.755 17.02-23.023 35.858-30.63 55.692-1.983 5.173-4.084 10.386-5.58 15.725-0.69 2.927-1.329 5.86-1.57 8.864z" fill="#FEFEFE"/> <path transform="scale(4)" d="m328.73 589.8c15.57 11.944 35.269 20.063 55.005 20.811l-1.915 13.048c-12.555-0.514-23.606-3.629-35.327-8.023-7.231-2.71-14.383-5.675-20.998-9.694-0.209-2.133-0.892-4.325-0.85-6.46 0.059-3.001 2.876-6.889 4.085-9.682z" fill="#7AD5DA"/> <path transform="scale(4)" d="m331.51 630.32 7.021 3.165 0.351 42.947c0.15 12.991-0.195 25.946 2.464 38.749 2.953 14.218 11.834 29.228 22.045 39.433 2.166 2.165 8.362 6.701 9.018 9.233-6.959-2.444-13.635-6.712-18.851-11.902-21.859-21.755-22.041-53.865-22.063-82.615l0.015-39.01z" fill="#FEFEFE"/> <path transform="scale(4)" d="m695.75 741.82c2.077-0.522 5.008-2.272 7.006-1.907-0.7 2.445-1.265 5.442-2.452 7.679-3.263 9.133-7.288 18.502-13.422 26.127-5.667 7.046-14.238 13.211-22.404 17.107-8.612 4.109-19.988 6.234-29.172 2.773-3.935-1.482-6.76-3.907-10.26-6.037l0.123-9.89c1.968 1.194 3.956 2.445 6.094 3.314 9.223 3.749 20.792 2.437 29.74-1.44 16.647-7.213 28.219-21.154 34.747-37.726z" fill="#7C32B3"/> <path transform="scale(4)" d="m291.39 133.67c0.742-12.841 5.51-37.379 13.885-47.032 11.918 0.5704 22.796 3.5179 33.952 7.6292 31.816 11.726 60.363 32.85 82.965 57.929l0.659 0.74-5.153 2.594-7.093-7.658c-18.577-18.961-42.291-34.505-67.161-43.806-12.106-4.5273-24.757-7.7063-37.738-7.8253-10.284 8.4493-10.313 26.053-13.938 37.761l-0.378-0.332z" fill="#FEFEFE"/> <path transform="scale(4)" d="m290.53 168.46c2.829 16.936 9.151 33.31 18.854 47.506 2.101 3.072 5.263 7.55 8.388 9.567 0.535 0.346 0.419 0.27 1.001 0.313 3.054 6.537 5.509 12.258 10.363 17.725-4.401 7.743-7.938 15.802-10.63 24.295-6.73-10.608-11.481-21.901-15.708-33.696-7.398-20.641-13.045-43.665-12.268-65.71z" fill="#7C32B3"/> <path transform="scale(4)" d="m607.68 156.13-5.896-3.212c10.883-13.935 23.881-26.069 38.38-36.16 20.346-14.161 44.246-24.162 68.676-28.423 4.381-0.7642 10.487-1.929 14.85-1.1467 5.773 14.524 7.321 31.313 8.779 46.78l-0.376-0.431c-0.849-1.243-0.991-2.97-1.297-4.424l-1.984-9.516c-1.294-6.206-5.243-21.378-9.48-25.683-29.65 3.3144-58.662 15.027-82.14 33.503-10.994 8.652-20.248 18.302-29.512 28.713z" fill="#FEFEFE"/> <path transform="scale(4)" d="m712.77 198.64c2.873-1.889 4.996-5.77 6.766-8.645 6.057-9.839 10.578-19.091 13.91-30.22 1.274 36.913-10.807 75.951-29.905 107.3-3.477-7.775-5.96-16.821-10.73-23.915 9.474-12.317 14.581-25.223 18.653-40.086 0.141-0.515 1.071-4.327 1.306-4.432z" fill="#7C32B3"/> <path transform="scale(4)" d="m542.14 795.83-0.094-39.39 69.91-13.712 0.041 15.846-28.981 9.768c-10.71 3.801-20.931 7.813-29.66 15.301-4.281 3.672-7.261 8.334-11.216 12.187z" fill="#D66103"/> <path transform="scale(4)" d="m318.35 717.43 5.626 17.776c-8.786 11.652-17.745 23.802-24.747 36.607-3.716 6.795-5.996 14.273-10.122 20.833-1.238 1.969-2.762 4.592-5.147 5.161l-2.447 0.165-0.124-49.866c8.405-6.903 13.626-17.045 19.155-26.186 2.632 1.304 4.967 2.155 7.952 1.766 4.112-0.536 7.388-3.073 9.854-6.256z" fill="#D78088"/> <path transform="scale(4)" d="m412.66 788.76 0.357-46.782c15.06 4.575 30.421 8.566 46.008 10.886l24.332 2.701-0.153 38.655c-12.236-9.708-26.205-18.806-40.591-24.984l-29.544-11.325c-0.015 9.845 0.891 20.641-0.342 30.365l-0.067 0.484z" fill="#D66103"/> <path transform="scale(4)" d="m737.08 384.56 0.433 0.074c3.852 0.584 8.126 4e-3 12.014-0.202-10.347 18.623-26.131 30.754-45.306 39.41l-9.045 3.777c-1.516 0.6-3.502 1.088-4.743 2.097 9.758 1.962 19.193 3.792 29.19 3.828l-16.608 8.836c-17.733 8.866-34.202 11.727-53.918 11.598 6.675-6.63 9.748-15.498 15.96-22.238 4.77-5.176 11.854-7.754 16.948-12.886 5.806-0.958 11.86-4.066 17.014-6.821 14.119-7.549 26.003-17.169 38.734-26.692l-0.673-0.781z" fill="#7C32B3"/> <path transform="scale(4)" d="m316.28 136.16c0.76-4.932 1.94-9.52 3.366-14.292 8.545 2.826 17.207 5.821 25.144 10.114 18.041 9.756 31.485 25.033 41.286 42.824l-25.345 23.233c-0.157-1.927-0.62-3.693-1.201-5.536-5.516-17.494-17.553-35.72-31.348-47.735-3.727-3.246-7.497-6.312-11.902-8.608z" fill="#D66103"/> <path transform="scale(4)" d="m663.87 200.6-26.512-25.188c14.744-27.31 39.44-43.908 68.343-53.237l2.455 12.527c-16.302 11.3-30.371 30.286-38.488 48.196-2.188 4.826-4.523 9.886-5.472 15.137l-0.326 2.565z" fill="#D66103"/> <path transform="scale(4)" d="m392.18 714.91 0.418 0.035c4.699 0.463 9.786 2.294 14.405 3.439l34.5 8.093c20.004 3.818 40.318 7.155 60.664 8.411 7.134 0.44 14.437 0.247 21.588 0.204 22.906-0.138 46.024-2.211 68.239-7.978 12.934-3.357 24.842-8.309 37.423-12.565l-2.676 9.76c-3.946 2.226-8.907 3.505-13.233 4.847-12.242 3.797-24.881 6.884-37.493 9.168-32.057 5.804-65.514 7.853-97.944 3.933-18.324-2.215-36.2-6.389-54.084-10.826l-19.301-5.308c-3.114-0.94-7.002-1.855-9.594-3.87-2.165-1.682-2.494-4.845-2.912-7.343z" fill="#3488A4"/> <path transform="scale(4)" d="m673.37 753.04c-3.716 5.583-10.977 10.602-16.927 13.593-5.885 2.96-13.273 4.86-19.693 2.492-4.166-1.537-7.291-4.7-9.153-8.677-1.476-3.153-1.783-6.604-1.253-10.019 2.367-15.248 21.229-18.741 31-27.568 1.29-1.166 3.167-2.848 3.564-4.637 0.259-1.162 0.235-2.236-0.396-3.279-0.821-1.355-2.13-2.083-3.669-2.385-3.839-0.755-8.947 2.472-12.135 4.372 0.332-6.593 2.23-13.028 2.66-19.633 1.312-20.175 0.114-40.784-2.004-60.843 13.563-2.146 26.542-5.228 39.235-10.545l2.049 14.243-0.058 0.349c-9.767 5.232-20.128 8.992-30.982 11.157l-1.172 54.192c4.345-1.781 12.434-7.242 16.971-5.242 1.632 0.72 2.523 2.154 3.076 3.792 1.356 4.016-0.474 8.244-2.342 11.798-2.271 4.321-5.19 8.002-8.891 11.172-4.16 3.564-8.772 6.657-13.202 9.874-6.015 4.367-16.889 10.526-13.955 19.402 0.767 2.322 2.821 4.155 5.008 5.121 5.704 2.519 13.766 0.323 19.205-1.976 3.093-1.308 6.074-2.744 8.855-4.63 1.42-0.963 2.543-1.676 4.209-2.123z" fill="#D66103"/> <path transform="scale(4)" d="m392.18 714.91-1.265-9.917c15.294 3.602 30.113 9.051 45.542 12.181 29.876 6.061 60.284 8.376 90.743 7.469 36.291-1.081 70.434-6.431 104.24-19.901l-2.025 9.807c-12.581 4.256-24.489 9.208-37.423 12.565-22.215 5.767-45.333 7.84-68.239 7.978-7.151 0.043-14.454 0.236-21.588-0.204-20.346-1.256-40.66-4.593-60.664-8.411l-34.5-8.093c-4.619-1.145-9.706-2.976-14.405-3.439l-0.418-0.035z" fill="#41EFEE"/> <path transform="scale(4)" d="m338.05 625.24c13.143 4.792 26.398 9.775 40.501 10.576-1.814 21.815-1.507 42.979-0.246 64.807 0.335 5.807 0.115 11.944 1.353 17.64 0.864 3.981 2.453 8.142 5.091 11.302 2.545 3.05 5.643 5.481 9.214 7.226 0.819 0.4 5.247 1.952 5.547 2.41 0.308 0.468-0.053 5.39-0.061 6.208l-0.385 27.024-9.977-3.018c1.507-5.659 0.887-12.809 0.912-18.676l-8.5-3.717c-8.006-4.193-15.362-10.982-18.032-19.824l-0.218-0.752c-1.694-5.672-0.832-13.261-0.796-19.19l0.488-39.236c7e-3 -4.233 0.641-9.868-0.605-13.874-2.94-9.457-15.599-16.441-23.809-20.659l-0.477-8.247z" fill="#D66103"/> <path transform="scale(4)" d="m300.94 379.86c9.256 10.732 19.38 18.327 31.94 24.896 2.767 1.447 5.725 3.306 8.886 3.583 2.628 4.086 5.083 8.798 8.486 12.276 6.545 11.907 15.442 22.497 26.411 30.614-2.678 2.26-6.364 2.835-9.771 3.098-18.578 1.435-43.65-5.111-57.955-17.339 1.644-1.839 8.391-3.584 10.868-4.722 4.725-2.172 9.293-4.483 13.681-7.277-2.873-1.489-6.945-1.868-10.103-2.818-19.063-5.734-34.367-17.195-43.812-34.904 7.059-1.722 14.563-3.44 20.903-7.128l0.466-0.279z" fill="#7C32B3"/> <path transform="scale(4)" d="m316.28 136.16c4.405 2.296 8.175 5.362 11.902 8.608 13.795 12.015 25.832 30.241 31.348 47.735 0.581 1.843 1.044 3.609 1.201 5.536-10.676 11.243-19.981 24.561-27.855 37.887-18.92-28.726-22.352-66.504-16.596-99.766z" fill="#FDC036"/> <path transform="scale(4)" d="m708.16 134.7c5.401 35.754 0.741 72.275-16.789 104.28l-27.497-38.385 0.326-2.565c0.949-5.251 3.284-10.311 5.472-15.137 8.117-17.91 22.186-36.896 38.488-48.196z" fill="#FDC036"/> <path transform="scale(4)" d="m338.53 633.48c8.21 4.218 20.869 11.202 23.809 20.659 1.246 4.006 0.612 9.641 0.605 13.874l-0.488 39.236c-0.036 5.929-0.898 13.518 0.796 19.19l0.218 0.752c2.67 8.842 10.026 15.631 18.032 19.824l8.5 3.717c-0.025 5.867 0.595 13.017-0.912 18.676-5.688-1.63-11.245-3.19-16.682-5.566-0.656-2.532-6.852-7.068-9.018-9.233-10.211-10.205-19.092-25.215-22.045-39.433-2.659-12.803-2.314-25.758-2.464-38.749l-0.351-42.947z" fill="#FECC39"/> <path transform="scale(4)" d="m496.54 852.39 0.092-95.12 32.317-0.041-0.071 17.529-0.162 77.856c-3.781 1.459-7.571 1.909-11.329 3.104-1.056-8.331-2.351-18.438-6.242-25.941l-6.269 25.49-7.622-1.486-0.714-1.391z" fill="#7C32B3"/> <path transform="scale(4)" d="m700.26 344.45c3.993 0.017 7.354 0.686 11.254 1.241 10.388 6.191 19.884 10.006 32.042 6.932l1.452-0.411c-5.133 11.255-15.66 21.045-27.315 25.39-2.104 0.785-4.077 1.041-6.295 1.201 7.674 3.166 17.375 5.092 25.683 5.757l0.673 0.781c-12.731 9.523-24.615 19.143-38.734 26.692-5.154 2.755-11.208 5.863-17.014 6.821l0.81-1.251c5.212-8.451 4.572-18.977 0.174-27.607-2.298-4.507-5.365-8.941-6.369-13.979-1.341-6.725 1.246-15.137 4.941-20.771 4.694-7.159 10.663-9.086 18.698-10.796z" fill="#B46ED0"/> <path transform="scale(4)" d="m673.37 753.04c-1.666 0.447-2.789 1.16-4.209 2.123-2.781 1.886-5.762 3.322-8.855 4.63-5.439 2.299-13.501 4.495-19.205 1.976-2.187-0.966-4.241-2.799-5.008-5.121-2.934-8.876 7.94-15.035 13.955-19.402 4.43-3.217 9.042-6.31 13.202-9.874 3.701-3.17 6.62-6.851 8.891-11.172 1.868-3.554 3.698-7.782 2.342-11.798-0.553-1.638-1.444-3.072-3.076-3.792-4.537-2-12.626 3.461-16.971 5.242l1.172-54.192c10.854-2.165 21.215-5.925 30.982-11.157 0.906 17.557 1.521 35.262 0.689 52.839l-1.931 20.452c-0.561 4.435-3.513 19.129-2.146 22.842-2.085 6.138-5.606 11.521-9.832 16.404z" fill="#FDC036"/> <path transform="scale(4)" d="m599.9 480.73 19.082-6.85c-20.828 25.403-45.556 44.722-76.79 55.914-8.474 3.036-17.363 5.707-26.354 6.586-12.377 1.211-22.755-1.339-34.347-5.241-20.746-6.984-38.105-17.493-54.933-31.364-9.084-7.489-17.47-16.125-24.906-25.248 7.346 3.092 14.776 5.646 22.473 7.717 4.484 1.207 10.357 1.604 14.457 3.687 4.734 2.406 9.561 7.55 13.795 10.899 9.62 7.609 19.474 14.299 30.575 19.588 5.567 2.653 11.31 5.13 17.281 6.728 2.667 0.714 5.428 1.171 8.166 1.507 0.777 0.095 2.836 0.094 3.444 0.419 8.973-0.645 17.281-3.535 25.464-7.126 12.543-5.505 24.379-12.757 34.878-21.564l7.846-7.258c1.41-1.398 3.003-3.386 4.705-4.367 3.835-2.21 10.774-2.944 15.164-4.027z" fill="#42A8B8"/> <path transform="scale(4)" d="m511.84 525.08c8.973-0.645 17.281-3.535 25.464-7.126 12.543-5.505 24.379-12.757 34.878-21.564l7.846-7.258c1.41-1.398 3.003-3.386 4.705-4.367 3.835-2.21 10.774-2.944 15.164-4.027-0.235 3.006-6.6 8.467-8.996 10.514-6.038 5.158-12.639 9.727-19.211 14.173-12.148 8.219-24.424 15.341-38.458 19.84-4.311 1.382-10.182 3.084-14.684 2.544-2.516-0.302-4.7-1.215-6.708-2.729z" fill="#41EFEE"/> <path transform="scale(4)" d="m607.68 156.13c9.264-10.411 18.518-20.061 29.512-28.713 23.478-18.476 52.49-30.188 82.14-33.503 4.237 4.305 8.186 19.477 9.48 25.683l1.984 9.516c0.306 1.454 0.448 3.181 1.297 4.424l0.376 0.431c0.999 8.492 1.624 17.272 0.976 25.815-3.332 11.129-7.853 20.381-13.91 30.22-1.77 2.875-3.893 6.756-6.766 8.645 3.155-16.531 4.954-33.523 3.512-50.364-0.982-11.467-3.65-23.061-6.633-34.156l-2.401 0.378c-32.767 6.867-59.163 27.89-77.165 55.444l-22.402-13.82z" fill="#B46ED0"/> <path transform="scale(4)" d="m291.39 133.67 0.378 0.332c3.625-11.708 3.654-29.312 13.938-37.761 12.981 0.119 25.632 3.298 37.738 7.8253 24.87 9.301 48.584 24.845 67.161 43.806l7.093 7.658-24.63 14.357c-6.431-9.91-13.137-19.085-21.793-27.23-15.308-14.406-34.57-22.789-54.824-27.464-13.939 35.028-11.312 76.009 2.323 110.66-0.582-0.043-0.466 0.033-1.001-0.313-3.125-2.017-6.287-6.495-8.388-9.567-9.703-14.196-16.025-30.57-18.854-47.506-1.001-9.104-0.684-18.187-0.075-27.303 0.148-2.214-0.024-5.497 0.934-7.49z" fill="#B46ED0"/> <path transform="scale(4)" d="m272.56 651.85c6.98-1.999 16.042 0.814 22.188 4.173 2.902 1.586 5.174 3.602 7.46 5.963 4.008 4.035 7.8 8.572 10.046 13.847 1.011 2.376 1.678 5.027 2.832 7.312l0.295 17.353-0.677 0.405c-1.703-1.903-3.599-3.092-6.213-3.285-3.456-0.254-7.208 1.036-9.743 3.398-2.772 2.583-4.326 6.193-4.312 9.966 0.014 3.738 1.703 6.913 4.396 9.424l1.711 1.511c-5.529 9.141-10.75 19.283-19.155 26.186l0.051-19.416c2e-3 -5.591 0.664-12.027-2.117-17.109-1.672-3.056-4.91-5.603-8.246-6.568-4.117-1.19-8.828-0.566-12.493 1.624-4.956 2.961-6.877 7.412-8.078 12.773-3.601 4.632-6.569 9.888-9.803 14.791-1.966 2.981-3.593 6.335-7.25 7.347l0.064-49.045c1.524-2.391 2.092-5.334 3.006-8.002 2.096-6.113 5.08-11.713 9.221-16.69 6.866-8.253 15.79-14.976 26.817-15.958z" fill="#FECC39"/> <path transform="scale(4)" d="m272.56 651.85c6.98-1.999 16.042 0.814 22.188 4.173 2.902 1.586 5.174 3.602 7.46 5.963l0.306 8.477c-0.202 1.724-2.379 4.226-3.676 5.282-6.777 5.516-17.814 6.072-26.118 5.246-6.057-0.603-12.577-3.02-16.407-7.948-1.782-2.292-2.859-5.488-2.25-8.39 0.732-3.484 3.83-3.164 5.999-4.792l0.438-0.36 0.748-3e-3 0.875-0.997c1.445-0.999-0.084 0.484 1.04-0.64l0.337-0.36c2.189-0.32 3.21-1.993 5.485-2.227l0.083 0.78-3.832 1.837c-3.097 1.72-6.236 3.598-7.142 7.28-0.42 1.707-0.188 3.691 0.725 5.194 2.244 3.698 6.607 5.547 10.654 6.492 7.337 1.712 17.706 1.195 24.109-2.928 2.091-1.346 3.827-2.942 4.228-5.508 0.41-2.619-0.8-5.258-2.272-7.349-3.599-5.109-9.027-6.299-14.803-7.294l4.013-0.28 0.251-0.501-1.626-0.374-1.125 0.012c-0.87-0.178-1.324-0.542-2.28-0.543-2.186-3e-3 -4.064-0.084-6.211 0.466l-0.492 0.132-0.705-0.84z" fill="#FEF431"/> <path transform="scale(4)" d="m280.74 653.78c5.776 0.995 11.204 2.185 14.803 7.294 1.472 2.091 2.682 4.73 2.272 7.349-0.401 2.566-2.137 4.162-4.228 5.508-6.403 4.123-16.772 4.64-24.109 2.928-4.047-0.945-8.41-2.794-10.654-6.492-0.913-1.503-1.145-3.487-0.725-5.194 0.906-3.682 4.045-5.56 7.142-7.28l3.832-1.837c3.939-1.352 7.554-1.821 11.667-2.276z" fill="#FEFEFE"/> <path transform="scale(4)" d="m446.51 925.94-0.132-44.972-0.053-14.856c6e-3 -1.858-0.299-4.695 0.581-6.358 0.634-1.199 0.875-1.354 2.093-1.658 1.901 0.832 3.247 1.714 4.131 3.678 0.605 1.344 0.358 3.758 0.363 5.209 0.031 9.497-1.906 20.992 3.293 29.315 3.21 5.141 8.866 8.826 14.781 10.021 5.493 1.111 10.892-0.751 15.335-3.944 4.79-3.443 8.23-8.589 9.047-14.469l0.117-0.902c0.548-3.918 0.124-7.714-0.21-11.631 6.901 1.194 9.917 0.308 15.83-3.216 1.298 1.233 2.708 2.571 4.378 3.275 4.69 1.98 8.637 0.482 13.048-1.328-0.054 9.001-1.099 17.335 5.212 24.702 3.718 4.339 9.188 7.196 14.925 7.42 5.564 0.217 11.155-1.577 15.261-5.414 10.72-10.018 5.371-21.749 7.01-34.058 0.224-1.682 1.252-2.262 2.479-3.185 1.28 0.193 2.217 0.628 3.075 1.685 1.916 2.361 0.908 52.864 0.896 60.134l-131.46 0.552z" fill="#B46ED0"/> <path transform="scale(4)" d="m712.6 694.36 0.443-0.165c3.951-1.554 7.439-4.263 11.167-6.281 10.838-5.868 22.863-7.669 34.415-2.817 11.892 4.995 20.842 14.579 25.629 26.516 3.282 8.185 2.755 16.642 3.054 25.259 0.197 5.663 0.725 11.436 0.272 17.091l3.955 0.062 0.14 13.568-1.414-1.132c-3.307-3.22-3.306-7.904-3.135-12.148-0.256-0.325-0.572-0.597-0.872-0.882-2.127 2.658-4.557 5.419-7.424 7.287l-3.738 2.465 0.058-13.683-0.406-0.88c-0.499-5.597-2.151-10.823-6.699-14.521-2.877-2.34-6.405-3.475-10.109-2.927-4.814 0.714-8.973 3.135-11.88 7.078-2.347 3.182-3.214 7.407-3.604 11.266l0.228 7.391c-2.522 0.914-4.175 2.277-6.43 3.524-2.106 1.165-4.918 1.747-7.25 2.407l-0.674-0.356-0.429-3.265c-0.602-1.719-1.287-3.401-2.263-4.947-2.37-3.756-6.476-7.047-10.86-7.921-4.498-0.896-7.175 0.628-10.772 2.993-1.097-0.774-2.465-1.219-3.701-1.745 1.187-2.237 1.752-5.234 2.452-7.679l0.195-0.32c2.148-5.612 1.707-13.631 1.818-19.625 0.035-1.85 0.402-4.399-0.197-6.099-0.529-1.499-0.474-3.319-0.581-4.908 2.195-5.122 4.812-10.476 8.612-14.606z" fill="#FDC036"/> <path transform="scale(4)" d="m742.45 749.52 0.228 7.391c-2.522 0.914-4.175 2.277-6.43 3.524-2.106 1.165-4.918 1.747-7.25 2.407l-0.674-0.356-0.429-3.265c2.667-1.469 2.887-2.492 4.473-4.838 2.45-3.623 6.069-4.102 10.082-4.863z" fill="#EC9F7B"/> <path transform="scale(4)" d="m747.92 685.12c1.888 0.038 3.735 0.258 5.444 1.118 2.811 1.414 5.33 3.866 6.22 6.951 0.828 2.874 0.317 5.821-1.208 8.37-1.996 3.335-5.099 4.933-8.686 5.99-1.881-0.197-3.606-0.46-5.349-1.25-2.924-1.326-5.147-3.904-6.19-6.933-0.983-2.853-0.735-5.667 0.766-8.306 2.013-3.541 5.222-5.003 9.003-5.94z" fill="#FEFEFE"/> <path transform="scale(4)" d="m323.98 735.2c4.071 8.084 8.335 15.904 14.27 22.809 9.061 10.543 21.452 17.713 34.539 22.031 8.277 2.732 18.244 5.379 26.904 6.134l-0.209 22.571-0.731 0.68c-1.839-0.891-2.633-1.608-3.323-3.571-2.223-6.325-2.172-10.318-8.902-13.697-4.356-2.188-9.12-2.737-13.775-1.185-4.829 1.61-8.953 5.645-11.019 10.234-2.876 6.389-1.768 15.794-1.786 22.727-0.033 12.641 0.617 25.671-0.308 38.265-3.7 5.492-7.151 7.719-13.103 10.422-1.423 0.647-2.937 1.54-4.456 1.878l-0.076-66.856-7e-3 -17.13c-3e-3 -3.217 0.295-6.672-0.297-9.834-0.925-4.945-3.16-8.886-6.749-12.411-4.118-4.046-9.149-6.181-14.949-6.079-6.04 0.107-11.528 2.343-15.631 6.821-2.98 3.252-5.333 7.533-6.084 11.891-0.581 3.371-0.303 7.158-0.305 10.584l-7e-3 17.919-4e-3 52.112-0.047 26.768c-0.467 5.054-1.719 10.819-5.81 14.265-2.824 2.379-6.951 4.119-10.317 5.644-0.66-5.024-0.507-10.124-0.514-15.182l0.04-22.723 0.193-72.321 2.447-0.165c2.385-0.569 3.909-3.192 5.147-5.161 4.126-6.56 6.406-14.038 10.122-20.833 7.002-12.805 15.961-24.955 24.747-36.607z" fill="#7C32B3"/> <defs> <linearGradient id="a" x1="680.27" x2="689.26" y1="912.64" y2="746.89" gradientUnits="userSpaceOnUse"> <stop stop-color="#752AB6" offset="0"/> <stop stop-color="#C06FDE" offset="1"/> </linearGradient> </defs> <path transform="scale(4)" d="m704 749.34c3.597-2.365 6.274-3.889 10.772-2.993 4.384 0.874 8.49 4.165 10.86 7.921 0.976 1.546 1.661 3.228 2.263 4.947l0.429 3.265 0.674 0.356c2.332-0.66 5.144-1.242 7.25-2.407 2.255-1.247 3.908-2.61 6.43-3.524l0.233 39.679 0.121 76.84-4e-3 23.174c-2e-3 3.97 0.337 8.283-0.172 12.204-0.271 2.089-1.239 3.837-2.758 5.3-1.491 1.437-3.139 2.077-5.21 1.999-2.096-0.08-3.969-1.328-5.361-2.853-1.066-1.168-2.149-2.914-2.381-4.5-0.546-3.72-0.191-7.838-0.193-11.613l-9e-3 -21.996-0.017-77.064c-0.076-7.406-0.205-14.959-4.942-21.116-3.029-3.938-8.397-6.97-13.376-7.351-5.123-0.392-10.407 2.131-14.06 5.608-4.731 4.503-6.368 9.087-6.633 15.534l-0.051 0.593c-0.95 12.178-0.201 24.903-0.185 37.136 6e-3 4.863 0.31 9.941-0.276 14.769-4.994 4.086-11.478 2.412-17.408 3.271l-0.051-23.484c-0.338-5.491-2.872-10.589-7.135-14.056-3.542-2.881-8.866-4.257-13.4-3.777-11.895 1.26-17.514 9.485-24.54 17.974l0.171-35.611c3.5 2.13 6.325 4.555 10.26 6.037 9.184 3.461 20.56 1.336 29.172-2.773 8.166-3.896 16.737-10.061 22.404-17.107 6.134-7.625 10.159-16.994 13.422-26.127 1.236 0.526 2.604 0.971 3.701 1.745z" fill="url(#a)"/> <path transform="scale(4)" d="m704 749.34c3.597-2.365 6.274-3.889 10.772-2.993 4.384 0.874 8.49 4.165 10.86 7.921 0.976 1.546 1.661 3.228 2.263 4.947l0.429 3.265-0.425 0.979c-3.163 0.606-6.682 2.189-9.901 2.037-1.506-0.07-2.095-0.152-3.138-1.248l-0.397-3c-1.243-6.336-5.532-8.524-10.463-11.908z" fill="#23005B"/> <path transform="scale(4)" d="m284.6 353.98-2.28-5.752c7.44-0.241 14.251-2.188 20.406-6.517 7.301-5.134 13.521-12.964 16.362-21.463 1.483-4.435 2.084-9.157 2.879-13.751 3.142-18.151 8.144-35.833 16.102-52.5 13.685-28.658 36.39-54.788 62.416-73.019 41.7-29.211 94.203-41.432 144.4-32.574 58.99 10.409 108.75 47.361 136.19 100.52 4.773 9.244 8.476 18.91 11.924 28.71l6.826 21.423c3.062 10.96 4.82 23.493 11.497 32.909 5.718 8.064 14.161 13.073 23.947 14.582l0.724 0.104c3.719 0.563 7.521 2e-3 11.244-0.35l-2.24 5.906-1.452 0.411c-12.158 3.074-21.654-0.741-32.042-6.932-3.936-5.528-8.045-11.173-10.626-17.493-2.77-6.78-3.878-14.484-5.669-21.59-3.595-14.259-7.729-28.311-13.712-41.776-12.71-28.599-30.326-52.212-55.281-71.215-7.114-5.416-14.378-10.643-22.775-13.885-5.821-3.709-12.482-6.575-18.86-9.196-9.967-4.095-20.041-7.604-30.635-9.696-37.508-7.404-73.451-5.945-109.45 7.635-8.053 3.038-16.388 6.175-23.563 10.981-8.596 3.539-17.172 9.186-24.619 14.71-25.981 19.272-45.045 44.634-57.429 74.434-4.08 9.816-7.009 20.148-9.173 30.543-1.508 7.245-2.282 14.752-4.269 21.873-3.698 13.257-13.723 24.887-25.97 31.017-5.188 1.896-9.374 2.03-14.872 1.946z" fill="#FEFEFE"/> <path transform="scale(4)" d="m346.5 411.09 18.999 12.941 1.438-0.547 0.181 0.521c0.898 1.974 5.531 3.813 7.49 4.827 9.754 5.048 19.77 9.579 30.057 13.436 65.802 24.671 137.41 25.642 204.32 4.661 10.274-3.221 20.622-6.663 30.555-10.824l16.16-7.088c2.804-1.222 5.733-2.743 8.726-3.399-7.436 8.202-10.705 18.343-19.478 25.524-8.333 6.821-18.111 10.43-28.142 14.015-22.394 8.006-45.352 12.854-68.73 16.927-9.956 1.734-20.142 3.849-30.256 4.328-13.111 0.621-25.933-1.46-38.824-3.601-22.998-3.818-46.518-8.877-68.472-16.773-11.71-4.211-22.662-9.485-33.87-14.806-10.969-8.117-19.866-18.707-26.411-30.614l-3.746-9.528z" fill="#D66103"/> <path transform="scale(4)" d="m542.14 795.83c3.955-3.853 6.935-8.515 11.216-12.187 8.729-7.488 18.95-11.5 29.66-15.301l28.981-9.768-0.477 113.34-0.015 37.901c-1e-3 5.888 0.445 12.091-0.078 17.934-0.21 2.344-1.563 4.863-3.213 6.505-2.018 2.008-4.197 2.932-7.049 2.774-2.823-0.155-5.456-1.174-7.355-3.32-1.396-1.578-2.265-3.688-2.63-5.751-0.672-3.793-0.204-8.273-0.205-12.172l0.047-32.218c0.01-6.716 1.006-15.342-1.042-21.745-1.812-5.662-6.685-10.503-12.733-11.312-4.871-0.652-9.155 0.841-12.842 4.06-3.815 3.331-5.719 8.277-6.068 13.235-5.483 0.597-11.076 2.526-16.444 3.834l0.247-75.813z" fill="#FDC036"/> <path transform="scale(4)" d="m412.66 788.76 0.067-0.484c1.233-9.724 0.327-20.52 0.342-30.365l29.544 11.325c14.386 6.178 28.355 15.276 40.591 24.984l-0.067 61.841c-0.012 9.706 0.774 20.246-0.171 29.861-0.12 1.22-0.423 2.094-1.215 3.028-1.62 1.913-3.853 3.395-6.425 3.525-2.446 0.124-4.988-1.052-6.767-2.667-1.112-1.011-2.014-2.191-2.421-3.658-0.595-2.153-0.274-4.912-0.278-7.168-0.011-5.443 0.182-10.958-0.23-16.386-0.39-5.162-2.181-9.965-6.299-13.33-3.668-2.996-8.122-4.387-12.83-3.713-6.315 0.904-10.937 6.386-12.496 12.317-1.248 4.752-0.623 10.641-0.61 15.536l0.135 37.964c0.021 5.382 0.694 11.745-0.063 17.018-0.204 1.419-1.026 3.073-1.909 4.192-2.003 2.536-4.803 4.106-8.027 4.376-2.788 0.233-5.504-0.507-7.54-2.457-1.698-1.626-3.101-4.035-3.404-6.392-0.57-4.446-0.14-9.361-0.134-13.862l0.014-27.634 0.193-97.851z" fill="#FDC036"/> <path transform="scale(4)" d="m396.07 594.25c5.812-0.848 11.649-4.456 15.117-9.178l0.387-0.54c0.633-0.873 1.14-1.619 1.513-2.653 0.343-0.953 0.7-1.723 1.164-2.621l0.495 0.495-0.103 1.25c-0.759 3.549-0.885 7.233-1.301 10.864-2.567 22.385 2.52 44.893 13.831 64.386 3.003 5.176 6.827 9.523 10.491 14.192 3.329 4.24 7.904 8.657 12.05 12.112 12.856 10.716 27.244 18.927 43.993 21.736 24.051 4.035 46.094-2.259 65.794-16.374 23.907-17.129 42.177-43.697 47.197-72.847 1.444-8.39 1.598-17.575 0.34-25.993-0.816-5.463-2.389-10.707-3.489-16.105 3.789 7.499 9.091 14.979 17.202 18.358 1.691 0.705 3.852 1.449 5.6 0.76 6.028 32.284 10.266 65.561 8.001 98.414-8.564 3.962-17.101 7.798-26.073 10.772-16.008 5.307-32.601 8.567-49.278 10.864-55.615 7.659-113.31 3.142-166.16-16.445l-2.273-0.907c-2.262-26.754-0.436-52.664 2.679-79.252 0.807-6.892 1.106-14.594 2.819-21.288z" fill="#3488A4"/> <path transform="scale(4)" d="m633.98 481.05 0.324 0.468c1.942 2.549 4.746 4.818 7.029 7.084 3.98 3.951 7.749 8.041 11.227 12.446 16.739 21.205 26.831 44.686 37.264 69.347-9.47 10.061-23.053 15.367-36.55 17.139-1.977 0.26-4.419 0.859-6.391 0.753-0.708-0.038-1.214-0.185-1.882-0.349l-10.317-2.657c-3.713-11.65-7.207-23.607-15.162-33.199l6.829 40.01c-1.748 0.689-3.909-0.055-5.6-0.76-8.111-3.379-13.413-10.859-17.202-18.358 1.1 5.398 2.673 10.642 3.489 16.105 1.258 8.418 1.104 17.603-0.34 25.993-5.02 29.15-23.29 55.718-47.197 72.847-19.7 14.115-41.743 20.409-65.794 16.374-16.749-2.809-31.137-11.02-43.993-21.736-4.146-3.455-8.721-7.872-12.05-12.112-3.664-4.669-7.488-9.016-10.491-14.192-11.311-19.493-16.398-42.001-13.831-64.386 0.416-3.631 0.542-7.315 1.301-10.864l0.103-1.25-0.495-0.495c-0.464 0.898-0.821 1.668-1.164 2.621-0.373 1.034-0.88 1.78-1.513 2.653l-0.387 0.54c-3.468 4.722-9.305 8.33-15.117 9.178l4.133-41.448c-5.696 8.568-7.776 19.536-10.537 29.31-3.527 3.561-7.321 5.767-12.336 6.457-15.338 2.109-30.219-5.146-42.08-14.173 1.496-5.339 3.597-10.552 5.58-15.725 7.607-19.834 17.875-38.672 30.63-55.692l17.333-21.176c14.515 17.611 30.262 32.72 49.708 44.767l9.5 5.464c0.436 0.225 2.489 1.016 2.75 1.347 0.478 0.606 0.325 3.316 0.337 4.155l-1.495 20.839c-0.636 6.942-2.22 15.234-1.388 22.11 0.374 3.086 1.384 5.971 3.478 8.327 2.657 2.991 6.74 4.681 10.709 4.737 3.987 0.056 7.486-1.413 10.228-4.313 5.306-5.611 4.349-13.735 3.959-20.795l-2.09-24.418c5.75 2.05 11.626 3.816 17.613 5.03 2.127 0.432 4.751 1.158 6.908 1.137l0.036 25.981c1e-3 6.075 0.405 12.409-0.861 18.374-2.021 9.519-6.372 18.301-8.728 27.708l-0.247 0.947c-2.063 8.031-1.328 17.719 2.851 24.971 2.713 4.706 7.689 8.818 13 10.087 4.554 1.089 10.313 0.546 14.289-1.959 5.824-3.67 9.913-9.952 11.307-16.637 3.459-16.593-7.487-29.974-9.968-45.62-1.021-6.436-0.631-13.221-0.613-19.719l0.395-24.173c9.359-0.473 18.992-4.359 28.086-6.464-0.055 5.953-0.539 11.937-1.119 17.862-0.779 7.948-3.222 19.176 1.487 26.192 1.897 2.827 5.061 5.038 8.394 5.742l0.682 0.133c0.917 0.183 1.808 0.363 2.75 0.343 3.798-0.079 7.824-2.223 10.343-5.011 1.848-2.047 3.256-4.486 3.781-7.209 1.078-5.585-0.116-13.751-0.437-19.434l-1.442-30.333c3.554-1.413 6.905-4.091 10.135-6.126 18.627-11.732 37.935-26.752 50.849-44.795z" fill="#7AD5DA"/> <path transform="scale(4)" d="m420.94 179.46c7.175-4.806 15.51-7.943 23.563-10.981 36.001-13.58 71.944-15.039 109.45-7.635 10.594 2.092 20.668 5.601 30.635 9.696 6.378 2.621 13.039 5.487 18.86 9.196 8.397 3.242 15.661 8.469 22.775 13.885 24.955 19.003 42.571 42.616 55.281 71.215 5.983 13.465 10.117 27.517 13.712 41.776 1.791 7.106 2.899 14.81 5.669 21.59 2.581 6.32 6.69 11.965 10.626 17.493-3.9-0.555-7.261-1.224-11.254-1.241-7.138-0.082-13.224 1.967-18.474 7.053-5.981 5.795-9.9 14.062-9.879 22.449 0.022 8.815 5.065 13.894 8.14 21.491 3.098 7.652 1.664 15.894-4.11 21.884-2.512 2.607-5.558 4.476-8.569 6.438-0.858 0.559-2.012 1.547-2.934 1.845-2.993 0.656-5.922 2.177-8.726 3.399l-16.16 7.088c-9.933 4.161-20.281 7.603-30.555 10.824-66.916 20.981-138.52 20.01-204.32-4.661-10.287-3.857-20.303-8.388-30.057-13.436-1.959-1.014-6.592-2.853-7.49-4.827l-0.181-0.521-1.438 0.547-18.999-12.941 3.746 9.528c-3.403-3.478-5.858-8.19-8.486-12.276-3.161-0.277-6.119-2.136-8.886-3.583-12.56-6.569-22.684-14.164-31.94-24.896-6.659-7.844-12.603-16.214-16.33-25.876 5.498 0.084 9.684-0.05 14.872-1.946 12.247-6.13 22.272-17.76 25.97-31.017 1.987-7.121 2.761-14.628 4.269-21.873 2.164-10.395 5.093-20.727 9.173-30.543 12.384-29.8 31.448-55.162 57.429-74.434 7.447-5.524 16.023-11.171 24.619-14.71z" fill="#FDC036"/> <path transform="scale(4)" d="m380.77 286.26c3.107 0.027 5.871-0.674 8.919-0.979 4.742-0.474 9.579-0.754 14.343-0.77 2.112-7e-3 3.922-0.395 5.502 1.224l0.499 0.551c-8.678 3.968-14.501 8.464-20.747 15.688 0.193-1.559 0.172-1.695 1.215-2.85l3-3.623c0.935-0.309 0.615-0.092 1.333-0.774 0.785-0.746 1.463-1.632 2.441-2.121 0.756-0.379 0.334-0.082 1.117-0.865l0.609-0.617c0.905-0.659 2.236-1.508 3.243-2.012l3.59-1.938-3.475-0.595c-3.952-0.764-11.635-1.168-15.329 0.404-0.672 0.286-1.317 0.459-2.023 0.65l-1.431 0.399c-2.401 0.766-4.602 2.94-5.726 5.197-0.599 1.204-1.344 2.41-1.812 3.666-0.501 1.346-1.049 2.138-2.011 3.218l-0.348 0.382c0.441-1.627 0.948-3.038 1.651-4.562 1.573-3.407 3.451-6.492 5.44-9.673z" fill="#F4962C"/> <path transform="scale(4)" d="m366.94 423.48c3.145-3.074 7.788-4.94 11.736-6.734 13.642-6.201 29.138-11.517 44.305-11.294 1.611 0.023 2.667 0.047 4.114 0.798-0.472 1.019-0.101 0.667-1.269 1.094-2.856 1.044-6.227 1.268-9.219 1.826-5.933 1.107-11.854 2.308-17.661 3.971-6.971 1.998-13.752 4.508-20.54 7.049-3.077 1.151-8.033 3.845-11.285 3.811l-0.181-0.521z" fill="#23005B"/> <path transform="scale(4)" d="m403.3 392.71c9.677-1.001 19.418-0.4 27.83 4.747-6.376 0.404-12.634-0.846-18.992-1.068-9.213-0.323-18.392 0.874-27.48 2.265l-26.526 5.225c14.134-7.001 29.54-9.911 45.168-11.169z" fill="#23005B"/> <path transform="scale(4)" d="m593.71 404.11c14.378-0.441 28.292 2.843 41.611 8.133 5.938 2.358 12.964 5.378 18.111 9.168 1.176 0.867 2.408 1.555 2.993 2.921l-1.677-0.432c-12.851-5.642-25.85-10.298-39.546-13.411l-23.636-4.741-0.056-0.675 2.2-0.963z" fill="#23005B"/> <path transform="scale(4)" d="m611.9 392.71c17.569-1.087 38.423 3.361 54.1 11.188-5.386-0.358-10.918-2.146-16.208-3.259-12.487-2.706-25.326-4.042-38.086-3.385-3.825 0.198-13.62 1.937-16.613 0.131l-0.058-0.863c4.314-2.969 11.781-3.416 16.865-3.812z" fill="#23005B"/> <path transform="scale(4)" d="m373.68 300.5c-0.625 2.363-1.294 4.686-1.595 7.116l-0.349 0.388c0.967-13.884 7.76-24.582 18.137-33.502 10.104-8.685 26.133-12.717 39.252-11.612l6.875 1.013 0.914 0.182c14.31 2.933 27.624 12.027 35.649 24.231 5.658 8.603 9.331 19.605 9.59 29.938-0.428-1.2-0.587-2.243-0.755-3.5-0.495-3.712-1.558-7.611-2.695-11.177-0.433-3.119-1.804-5.976-3.462-8.622-8.487-13.547-22.51-23.245-38.097-26.514-14.275-2.994-31.471-2.025-43.961 6.226-5.072 3.35-8.644 6.826-12.412 11.598-1.989 3.181-3.867 6.266-5.44 9.673-0.703 1.524-1.21 2.935-1.651 4.562z" fill="#982F03"/> <path transform="scale(4)" d="m547.55 300.82-4.119 14.431c-0.229 0.904-0.471 1.661-0.568 2.594l-0.087 0.906c-0.412-3.585 0.378-6.787 1.192-10.25 1.717-7.313 4.354-14.187 8.597-20.437 8.996-13.253 21.855-21.598 37.439-24.686 10.234-2.028 21.085-1.334 31.043 1.721 14.341 4.399 27.658 14.854 34.654 28.205 1.327 2.533 5.373 9.776 4.553 12.388-1.723-5.335-4.319-9.971-7.377-14.631-6.769-10.916-21.143-20.039-33.599-22.953-16.229-3.795-33.93-2.799-48.297 6.178l-7.825 5.562c-3.184 2.441-6.067 5.549-8.585 8.66l-0.54 0.658c-2.311 2.859-5.741 8.092-6.481 11.654z" fill="#982F03"/> <path transform="scale(4)" d="m542.08 176.67c2.503-2.653 4.801-5.141 8.693-5.295 3.569-0.142 6.506 1.14 9.059 3.619 4.601 4.468 4.695 12.031 6.626 17.863 3.611 10.908 12.635 24.535 25.406 24.685 4.607 0.055 8.489-1.416 11.883-4.618 5.652-5.334 6.65-13.112 6.914-20.458l1.338 5.01c1.011 6.041-0.929 12.932-4.493 17.825-2.591 3.556-6.926 6.527-11.291 7.232-6.358 1.026-12.499-0.362-17.643-4.314-11.386-8.748-14.415-20.194-16.232-33.763-0.505-3.772-1.822-7.332-5.042-9.636-1.943-1.391-4.466-2.376-6.882-1.913-3.547 0.68-6.054 3.296-8.002 6.129l-0.18 0.526c-2.222 6.632-1.628 13.918-1.842 20.829-0.388 12.532-5.084 25.025-16.861 30.914-6.233 3.117-13.722 3.862-20.363 1.547-7.51-2.617-13.161-7.957-16.559-15.1-2.727-5.733-3.856-12.456-4.13-18.75-0.284-6.528 0.375-13.057-2.546-19.105-2.548-2.62-4.591-4.53-8.433-4.597-2.811-0.049-5.32 1.175-7.229 3.216-4.02 4.298-3.44 10.789-5.021 16.146-3.219 10.91-12.442 20.302-24.25 20.779-5.43 0.219-10.871-1.696-14.698-5.589-3.656-3.72-4.966-8.675-4.81-13.788 0.147-4.801 1.756-9.539 4.261-13.612-1.191 6.295-2.095 12.084-0.098 18.334 1.152 3.604 3.605 6.841 7.095 8.453 4.003 1.849 10.244 1.909 14.351 0.398 7.354-2.705 12.572-10.332 15.344-17.385 1.429-3.634 2.31-7.594 4.089-11.076 1.684-3.296 4.738-6.1 8.352-7.064 3.409-0.91 6.184-0.24 9.139 1.586l0.475 0.357c4.304 3.322 5.401 8.027 5.998 13.167 1.504 12.957 2.582 25.602 13.595 34.45 4.963 3.988 11.286 4.98 17.462 4.155l2.999-0.647 0.581-0.149c5.697-1.578 10.727-6.639 13.466-11.735 3.43-6.381 4.42-13.389 5.179-20.489 0.667-6.227 0.341-12.873 4.3-18.137z" fill="#23005B"/> <path transform="scale(4)" d="m507.8 356.68c3.094-0.53 7.068-0.227 10.198 0.196 4.723 0.638 10.654 2.004 13.588 6.123 1.285 1.804 1.27 4.465 0.739 6.537-1.704 6.646-10.382 11.058-15.899 14.07l1.841 9.342c1.598 5.455 4.993 10.409 10.112 13.064 2.694 1.397 5.738 2.114 8.671 0.959 5.105-2.01 5.287-6.562 7.456-10.722 0.752-1.442 1.502-1.582 2.993-2.006 1.861 0.45 2.004 0.398 3.285 1.962 0.213 1.161 0.308 1.996 0.048 3.167-1.101 4.96-4.003 10.172-8.41 12.893-3.986 2.461-8.489 3.157-13.019 2.057-6.504-1.579-10.945-6.188-14.374-11.691l-2.459-4.385-1.552 3.118c-3.194 6.18-8.571 10.981-15.305 12.954-3.96 1.16-8.86 0.709-12.464-1.386-4.266-2.48-8.993-8.007-9.703-13.021-0.284-1.998 0.175-2.967 1.389-4.52 0.871-0.395 1.534-0.754 2.526-0.625 3.094 0.403 3.872 6.552 5.788 8.869 1.82 2.202 4.194 3.538 7.058 3.773 3.537 0.289 7.223-1.583 9.833-3.832 6-5.169 7.464-13.114 8.124-20.579-2.989-1.362-6.281-2.644-9.058-4.39-3.344-2.101-6.346-5.191-7.158-9.173-0.49-2.405-0.37-4.756 1.148-6.77 3.39-4.501 9.376-5.376 14.604-5.984z" fill="#23005B"/> <path transform="scale(4)" d="m506.65 362.12 0.696-0.076c5.593-0.565 15.445-0.665 20.034 3.062 0.131 1.35 0.222 1.284-0.626 2.326-2.749-1.619-5.522-2.208-8.626-2.81-6.036-0.832-12.432-1.19-17.921 1.923-1.09 0.619-1.156 0.801-2.453 0.793l-0.224-1.342c0.304-0.579 0.587-0.946 1.157-1.287 2.385-1.424 5.274-2.046 7.963-2.589z" fill="#FEFEFE"/> <path transform="scale(4)" d="m284.6 353.98c5.498 0.084 9.684-0.05 14.872-1.946 3.647 6.875 9.474 12.944 14.391 18.954 4.498-6.037 10.234-11.494 18.105-12.488 4.256-0.537 8.35 0.252 11.719 3.022 4.099 3.37 6.4 9.363 6.777 14.578 0.359 4.954-0.672 10.19-2.662 14.731-1.056 2.41-4.814 7.424-4.764 9.701 0.068 3.155 2.137 7.741 3.458 10.551l3.746 9.528c-3.403-3.478-5.858-8.19-8.486-12.276-3.161-0.277-6.119-2.136-8.886-3.583-12.56-6.569-22.684-14.164-31.94-24.896-6.659-7.844-12.603-16.214-16.33-25.876z" fill="#B46ED0"/> <path transform="scale(4)" d="m313.87 370.99c4.498-6.037 10.234-11.494 18.105-12.488 4.256-0.537 8.35 0.252 11.719 3.022 4.099 3.37 6.4 9.363 6.777 14.578 0.359 4.954-0.672 10.19-2.662 14.731-1.056 2.41-4.814 7.424-4.764 9.701 0.068 3.155 2.137 7.741 3.458 10.551l3.746 9.528c-3.403-3.478-5.858-8.19-8.486-12.276-4.705-11.479 1.406-13.175 3.62-23.158 1.286-5.796 1.613-12.817-1.882-17.91-1.661-2.419-4.305-4.537-7.249-5.053-12.044-2.115-19.116 10.617-27.479 16.635 1.031-2.614 3.501-5.475 5.097-7.861z" fill="#23005B"/> <path transform="scale(4)" d="m420.94 179.46c7.175-4.806 15.51-7.943 23.563-10.981 36.001-13.58 71.944-15.039 109.45-7.635 10.594 2.092 20.668 5.601 30.635 9.696 6.378 2.621 13.039 5.487 18.86 9.196 2.36 4.304 5.377 8.154 7.214 12.728-0.264 7.346-1.262 15.124-6.914 20.458-3.394 3.202-7.276 4.673-11.883 4.618-12.771-0.15-21.795-13.777-25.406-24.685-1.931-5.832-2.025-13.395-6.626-17.863-2.553-2.479-5.49-3.761-9.059-3.619-3.892 0.154-6.19 2.642-8.693 5.295-3.959 5.264-3.633 11.91-4.3 18.137-0.759 7.1-1.749 14.108-5.179 20.489-2.739 5.096-7.769 10.157-13.466 11.735l-0.581 0.149-2.999 0.647c-6.176 0.825-12.499-0.167-17.462-4.155-11.013-8.848-12.091-21.493-13.595-34.45-0.597-5.14-1.694-9.845-5.998-13.167l-0.475-0.357c-2.955-1.826-5.73-2.496-9.139-1.586-3.614 0.964-6.668 3.768-8.352 7.064-1.779 3.482-2.66 7.442-4.089 11.076-2.772 7.053-7.99 14.68-15.344 17.385-4.107 1.511-10.348 1.451-14.351-0.398-3.49-1.612-5.943-4.849-7.095-8.453-1.997-6.25-1.093-12.039 0.098-18.334l1.184-2.99z" fill="#B46ED0"/> <path transform="scale(4)" d="m410.03 286.29c12.762-4.503 24.648-4.227 36.906 1.687 7.591 3.662 11.446 8.964 17.373 14.511 7.523 11.716 11.176 23.457 9.524 37.531-1.454 12.391-8.233 24.105-18.052 31.768-9.73 7.594-22.672 10.567-34.801 9.035-12.717-1.606-23.376-7.842-31.219-17.918-7.854-10.09-12.257-23.471-10.477-36.289l0.129-0.862c1.284-9.049 5.055-16.121 9.87-23.775 6.246-7.224 12.069-11.72 20.747-15.688z" fill="#23005B"/> <path transform="scale(4)" d="m415.63 340.25c1.171 0.058 2.479 0.071 3.576 0.521 2.091 0.859 3.355 2.499 4.273 4.479 0.11 1.877 0.287 3.735-0.687 5.427-1.186 2.06-2.837 3.056-5.044 3.735-1.609 0.049-2.891-0.04-4.335-0.822-2.047-1.108-3.269-2.814-3.791-5.059-0.348-1.497 0.303-3.747 1.135-5.008 1.254-1.899 2.687-2.801 4.873-3.273z" fill="#FEFEFE"/> <path transform="scale(4)" d="m426.62 299.61c2.572-0.453 5.463-0.53 8.016 0.141 3.736 0.982 7.287 3.547 9.154 6.948 1.742 3.173 2.498 7.402 1.314 10.922-1.737 5.165-5.466 8.388-10.168 10.735-2.735 0.331-6.078 0.449-8.684-0.521-3.745-1.393-7.535-4.957-9.17-8.626-1.571-3.527-1.251-7.15 0.135-10.678 1.812-4.613 5.085-6.953 9.403-8.921z" fill="#FEFEFE"/> <path transform="scale(4)" d="m414.76 290.25 1.995-0.14c-2.889 2.022-6.073 3.551-8.911 5.669-5.345 3.99-9.837 9.663-12.628 15.718-4.606 9.992-5.364 22.136-1.427 32.47 3.509 9.211 10.784 16.597 19.783 20.556 8.821 3.881 19.901 4.391 28.918 0.869 11.619-4.539 21.201-15.085 24.765-27.078 1.094-3.682 1.004-7.894 2.534-11.345 0.796 4.513 0.327 10.504-0.429 14.991-2.114 10.153-7.337 18.447-15.538 24.822-8.529 6.629-20.888 10.329-31.624 8.92l-0.943-0.132c-4.531-0.585-8.664-1.772-12.763-3.81-10.56-5.25-18.573-15.112-22.237-26.261-3.64-11.075-2.83-23.946 2.543-34.293 5.507-10.605 14.731-17.348 25.962-20.956z" fill="#FDC036"/> <path transform="scale(4)" d="m563.15 298.89c7.975-7.795 15.63-13.286 26.733-15.715 14.242-3.116 27.294 1.344 39.188 8.865 11.064 8.787 18.542 20.265 20.247 34.488 1.485 12.388-2.604 26.189-10.436 35.892-8.149 10.097-20.705 17.308-33.687 18.586-13.566 1.334-26.935-2.131-37.513-10.863-9.958-8.22-15.367-20.343-16.483-33.062-1.325-15.095 3.491-26.115 11.951-38.191z" fill="#23005B"/> <path transform="scale(4)" d="m585.99 340.75c1.656-0.475 3.448-0.593 5.053 0.104 1.543 0.67 2.733 2.021 3.298 3.603 0.67 1.875 0.426 4.472-0.517 6.204-1.032 1.896-2.748 2.897-4.713 3.589-0.964 0.197-1.749 0.268-2.713 0.08-2.081-0.407-3.563-1.378-4.648-3.213-0.94-1.589-1.477-3.308-0.915-5.127 0.796-2.581 2.859-4.073 5.155-5.24z" fill="#FEFEFE"/> <path transform="scale(4)" d="m595.31 299.11c3.598-0.305 6.621-0.264 9.942 1.476 3.933 2.061 6.978 6.199 7.979 10.508 0.851 3.664-7e-3 7.489-1.966 10.659-2.618 4.236-6.376 6.584-11.128 7.694-2.958 0.152-5.394-0.095-8.17-1.25-4.258-1.772-7.112-5.189-8.729-9.437-1.407-3.697-1.48-7.426 0.333-11.007 2.526-4.993 6.673-7.07 11.739-8.643z" fill="#FEFEFE"/> <path transform="scale(4)" d="m618.67 294.1c-3.654-2.645-7.324-4.183-11.561-5.67 10.096 0.603 19.521 5.706 26.201 13.263 7.775 8.797 11.495 20.463 10.756 32.13-0.783 12.362-6.498 23.503-15.877 31.563-9.003 7.737-20.593 11.847-32.487 10.846-11.969-1.007-23.351-6.218-31.121-15.536-3-3.598-5.579-8.313-6.758-12.853-2.209-6.795-2.521-13.78-1.966-20.842l1.994 7.252c0.75 4.253 2.303 8.009 3.992 11.959 6.83 10.869 14.474 18.409 27.322 21.423l4.078 0.851c9.832 0.388 17.83-0.964 26.152-6.513 9.705-6.472 14.642-16.228 16.923-27.381 0.397-3.622 0.525-7.606-0.101-11.203-2.06-11.831-7.682-22.221-17.547-29.289z" fill="#FDC036"/> <path transform="scale(4)" d="m636.31 334.59c1.186 2.613-1.018 7.5-2.042 10.193-0.955 2.511-2.455 3.8-1.522 6.469 1.114-0.379 1.104-0.833 1.625-1.88l1.078-2.187c0.535-0.994 0.697-1.768 0.914-2.852 0.215-1.072-1e-3 -0.13 0.633-1.336 0.222-0.423 0.275-1.17 0.367-1.633 0.301-1.502-0.102 0.444 0.508-1.492l0.25-2.373 0.487 0.498c-1.279 9.318-6.383 18.914-13.89 24.688-6.772 5.208-15.42 8.669-23.972 8.899l-0.247-0.462c1.544-0.039 2.993-0.023 4.497-0.375l0.633-0.117c1.944-0.389-1.109 0.235 1.492-0.508 1.227-0.351 2.149-0.549 3.378-1 1.531-0.562 2.745-0.77 4.247-1.625l-0.805-1.374-0.616 0.253c-5.075 2.041-14.104 4.665-19.211 2.494l-0.879-0.386c9.832 0.388 17.83-0.964 26.152-6.513 9.705-6.472 14.642-16.228 16.923-27.381z" fill="#FECC39"/> </svg>